<svg xmlns="http://www.w3.org/2000/svg" viewBox="0 0 512 512">
<rect width="512" height="512" fill="#fff"/>
<path fill="#000" fill-rule="evenodd" d="M 212 37 L 209 40 L 198 40 L 174 48 L 128 72 L 102 93 L 101 98 L 91 104 L 69 131 L 53 161 L 43 193 L 40 195 L 40 204 L 37 206 L 35 235 L 32 238 L 35 295 L 48 337 L 69 377 L 83 396 L 113 426 L 131 439 L 164 458 L 192 468 L 201 468 L 203 471 L 212 471 L 214 474 L 297 474 L 299 471 L 319 468 L 334 460 L 345 458 L 380 439 L 406 418 L 439 380 L 463 335 L 463 328 L 466 326 L 471 302 L 474 299 L 474 209 L 471 207 L 471 198 L 463 174 L 455 161 L 455 155 L 450 151 L 439 128 L 383 72 L 337 48 L 302 37 Z M 159 392 L 164 391 L 165 394 L 161 395 Z M 167 391 L 168 388 L 177 385 L 189 387 L 187 390 Z M 246 356 L 247 360 L 244 359 Z M 355 348 L 358 350 L 356 352 L 353 350 Z M 242 349 L 249 345 L 262 345 L 280 356 L 289 354 L 299 364 L 304 382 L 295 383 L 295 366 L 289 360 L 278 360 L 263 350 L 243 352 Z M 157 330 L 158 327 L 163 329 Z M 344 307 L 341 345 L 350 345 L 350 350 L 337 349 L 318 355 L 290 354 L 291 351 L 332 348 L 338 339 L 340 307 Z M 167 326 L 185 319 L 196 319 L 204 305 L 218 290 L 219 297 L 200 319 L 220 332 L 243 353 L 240 355 L 220 336 L 199 323 L 187 323 L 175 328 Z M 216 282 L 219 283 L 217 288 Z M 198 279 L 199 285 L 196 284 Z M 255 231 L 267 243 L 256 251 L 261 253 L 261 263 L 253 278 L 246 307 L 244 289 L 247 286 L 247 264 L 250 262 L 252 232 Z M 214 228 L 232 243 L 229 246 L 232 249 L 232 260 L 215 283 L 212 276 L 228 260 L 228 251 L 225 248 L 206 250 L 208 260 L 203 276 L 199 276 L 204 260 L 201 252 L 212 239 Z M 302 220 L 304 225 L 296 249 L 270 304 L 268 299 L 271 297 L 271 262 L 282 254 L 271 240 Z M 235 210 L 253 219 L 253 231 L 239 240 L 235 240 L 234 237 L 244 231 L 244 224 L 239 220 Z M 214 180 L 221 184 L 224 199 L 232 206 L 227 208 L 225 213 L 220 211 L 218 191 L 212 185 Z M 288 170 L 296 176 L 296 188 L 291 195 L 287 193 Z M 267 162 L 275 166 L 273 200 L 266 199 Z M 249 108 L 253 110 L 252 128 L 244 118 Z M 267 103 L 275 105 L 273 136 L 266 132 Z M 84 132 L 115 98 L 145 76 L 177 60 L 190 58 L 201 52 L 225 50 L 227 47 L 284 47 L 286 50 L 310 52 L 321 58 L 334 60 L 375 82 L 429 136 L 451 177 L 453 190 L 459 201 L 461 227 L 464 230 L 464 279 L 461 281 L 459 307 L 453 318 L 451 331 L 432 369 L 420 384 L 394 383 L 396 358 L 402 345 L 404 318 L 407 316 L 407 296 L 399 283 L 383 279 L 380 254 L 372 243 L 361 237 L 342 235 L 327 227 L 321 227 L 306 215 L 306 211 L 319 199 L 319 192 L 322 190 L 322 166 L 310 149 L 287 137 L 287 112 L 293 115 L 293 124 L 318 122 L 319 112 L 311 96 L 287 81 L 287 67 L 275 67 L 273 80 L 266 79 L 266 70 L 263 67 L 254 67 L 253 79 L 235 88 L 221 105 L 219 115 L 224 140 L 238 154 L 249 156 L 253 160 L 254 190 L 251 192 L 247 188 L 244 176 L 226 175 L 226 164 L 217 152 L 211 152 L 200 163 L 197 169 L 197 188 L 187 203 L 187 230 L 181 242 L 171 248 L 138 311 L 144 321 L 155 329 L 153 331 L 116 305 L 116 275 L 92 216 L 86 213 L 84 216 L 78 216 L 69 233 L 64 268 L 61 270 L 61 289 L 64 291 L 64 300 L 69 310 L 75 316 L 86 338 L 77 342 L 80 361 L 85 371 L 96 380 L 111 380 L 125 371 L 119 381 L 104 387 L 112 400 L 108 403 L 82 375 L 71 352 L 66 348 L 66 342 L 52 313 L 50 292 L 47 289 L 47 270 L 44 267 L 44 241 L 47 239 L 47 219 L 50 217 L 52 198 L 55 196 L 60 174 Z"/>
</svg>